<svg xmlns="http://www.w3.org/2000/svg" xmlns:xlink="http://www.w3.org/1999/xlink" viewBox="0 0 110.55 110.55"><defs><style>.cls-1{fill:#080707;}.cls-2{fill:url(#New_Gradient_Swatch);}.cls-3{fill:url(#New_Gradient_Swatch-2);}.cls-4{fill:url(#linear-gradient);}.cls-5{stroke:#080707;stroke-miterlimit:10;stroke-width:3px;fill:url(#linear-gradient-2);}</style><linearGradient id="New_Gradient_Swatch" x1="-505.32" y1="75.1" x2="-394.8" y2="75.1" gradientTransform="matrix(0.96, 0.22, -0.22, 0.97, 504.33, 82.5)" gradientUnits="userSpaceOnUse"><stop offset="0" stop-color="#5a0000"/><stop offset="0.25" stop-color="#670000"/><stop offset="0.58" stop-color="#710000"/><stop offset="1" stop-color="#740000"/></linearGradient><linearGradient id="New_Gradient_Swatch-2" x1="-2191.98" y1="1231.48" x2="-2081.45" y2="1231.48" gradientTransform="translate(2045.27 1512) rotate(66.16)" xlink:href="#New_Gradient_Swatch"/><linearGradient id="linear-gradient" x1="48.57" y1="63.28" x2="61.34" y2="63.28" gradientUnits="userSpaceOnUse"><stop offset="0" stop-color="#430000"/><stop offset="0.13" stop-color="#4f0000"/><stop offset="0.38" stop-color="#600000"/><stop offset="0.66" stop-color="#6a0000"/><stop offset="1" stop-color="#6d0000"/></linearGradient><linearGradient id="linear-gradient-2" x1="37.72" y1="44.16" x2="72.33" y2="44.16" gradientUnits="userSpaceOnUse"><stop offset="0.01" stop-color="#500000"/><stop offset="0.01" stop-color="#500000"/><stop offset="0.4" stop-color="#6c0000"/><stop offset="0.74" stop-color="#7c0000"/><stop offset="1" stop-color="#820000"/></linearGradient></defs><g id="Layer_2" data-name="Layer 2"><g id="_35" data-name="35"><circle class="cls-1" cx="55.28" cy="55.28" r="55.26"/><path class="cls-2" d="M67.75,2.09h-1.7l-.09,0h-.08l-.09,0h-.08l-.09,0h-.08l-.13,0h0c-1.5-.28-3-.49-4.49-.64H60L59,.8,57.57,22a33.14,33.14,0,0,1,5.41.79L67.75,2.09ZM52.3.87a54.18,54.18,0,0,0-8,1.08h-.08l-.12,0h-.51l-.08,0h0l4.65,20.69a33.44,33.44,0,0,1,5.36-.77L52.3.87ZM37.1,4.22c-.88.32-1.74.66-2.61,1h0l0,0h0l-.08,0h-.08l0,0h0l0,0h0l0,0H34l-.07,0h-.17l0,0h0l0,0h0l0,0h0l-.09,0h0l0,0h0l0,0h0l-.12,0h0l0,0h0l0,0h0l-.12,0h0l0,0h0c-.83.39-1.66.79-2.47,1.21h0l-.15.08h0l0,0h0l-.11.06h-.07l0,0h0l0,0h0l0,0h-.08l0,0h0l0,0h0l0,0h-.08L29,7.93,39.27,26.46a34.16,34.16,0,0,1,5-2.28l-7.13-20ZM23.4,11.35l-.82.61h0l0,0h0l0,0h0l0,0h0l0,0h0l0,0h0l0,0h-.06v0h0l0,0h0l-.05,0h0l0,0h0l0,0h0l0,0h0l-.08.06h0l0,0h0l0,0h0l-.1.08h0l-.06.05h0l-.16.12h0c-.29.23-.58.46-.86.7h0l0,0h0l0,0h0l-.1.09h0l0,0h0l0,0h0l0,0h0l-.1.09h0l0,0h0l0,0h0l0,0h0l-.07.06h0l0,0h0l0,0h0v0h0l0,0h0l0,0h0l0,0h0l0,0h0l-.06.05h0l0,0h0l0,0h0l0,0h0l0,0h0l-.07.06h0l0,0h0l0,0h0c-1,.91-2,1.86-3,2.84l15,14.88a33.56,33.56,0,0,1,4.13-3.58L23.4,11.35ZM12.28,22.25a53.79,53.79,0,0,0-4.52,6.92h0v0h0l0,0h0l-.06.11h0l0,0h0v0h0l0,0h0l0,.07h0v0h0v0h0v0h0l0,0v0h0l18.61,10A33.32,33.32,0,0,1,29,35.16L12.28,22.25ZM4.67,35.85c-.15.38-.29.77-.43,1.16h0l0,.08h0v.09h0v0l0,0h0v0h0l0,0h0v0h0l0,.08h0c-.52,1.5-1,3-1.38,4.6h0l0,.08h0l0,.08h0v0h0l0,.09h0l0,.08h0v0h0v0h0v0h0v0h0v0h0l0,.08h0v0h0v0h0v0h0v0h0v.12h0v0h0v0h0v0h0v0h0v0h0v0h0v.12h0v0h0v0h0v0h0v0h0v0h0v0h0v0h0v0h0v0h0v0h0v0h0c0,.16-.07.33-.11.49l20.67,4.32c0-.22.09-.45.15-.68a34,34,0,0,1,1.4-4.6L4.67,35.85Zm17.54,17-21-1.77a54.37,54.37,0,0,0,0,8.93l21.05-1.71a33.06,33.06,0,0,1,0-5.45Zm.54,9.49L2.06,66.61h0v.12h0v.08h0v0h0v0h0v0h0l0,.08h0v0h0v0h0a56.57,56.57,0,0,0,2,7.07h0l.06.15h0v0h0l0,0h0v0h0v0h0v0h0v.07h0v.08h0l0,0h0v0h0v0h0v0h0l.12.33,19.73-7.63a33,33,0,0,1-1.52-5.24Zm2.88,9L7,81.27c.18.35.37.7.56,1h0l0,0h0l0,0h0l.07.12h0v0h0l0,0h0l0,0h0v0h0l0,.08h0v0h0v0h0l0,0h0l.05.09h0v0h0v0h0v0h0l0,0h0l.05.07H8v0H8v.06H8v0h0l0,0h0l0,0h0l0,0v0h0v0h0v0h0l0,0h0v0h0v0h0l0,0h0l0,0h0l.05.09h0l0,0h0l0,0h0v0h0l.07.12h0v0h0v0h0l0,0h0l.09.15h0l0,0h0a53.18,53.18,0,0,0,3.13,4.6L28.57,75.91a33.73,33.73,0,0,1-2.94-4.62ZM31.56,79,16.41,93.85a54.69,54.69,0,0,0,4.17,3.88h0l0,0h0l0,0h0l.07.06h0l0,0h0v0h0l0,0h0l0,0h0l0,0h0l.12.1h0c.66.53,1.32,1,2,1.55L35.65,82.6A32.37,32.37,0,0,1,31.56,79Zm7.5,5.79L28.69,103.34c.87.48,1.75,1,2.64,1.39h0l.12,0h0l0,0h0l0,0h0l0,0h0l0,0h.13l0,0h.11l.07,0h0l0,0h0l.12.06h0c1.48.7,3,1.34,4.57,1.9l7.22-20a31.29,31.29,0,0,1-4.92-2.26ZM53.33,89a34.26,34.26,0,0,1-5.41-.79l-4.77,20.69h.28l.14,0h0a53.93,53.93,0,0,0,8.37,1.2L53.33,89Zm9.42-.77a32.37,32.37,0,0,1-5.36.78l1.21,21.19A55.1,55.1,0,0,0,67.05,109h0l.12,0h.23l-4.65-20.7Zm8.88-3.43a34.16,34.16,0,0,1-5,2.28l7.13,20a55,55,0,0,0,7.58-3.43h0l0,0h0l0,0h0l.07,0h0l0,0h0l0,0h0l0,0h0l0,0h0l0,0h.18L71.63,84.83ZM79.22,79a34.49,34.49,0,0,1-4.14,3.59L87.5,99.74c.79-.57,1.56-1.17,2.31-1.79h0l.16-.13h0l0,0h0l0,0h0l.1-.08h0l0,0h0l0,0h0l0,0h0l.07-.06h0l0,0h0l0,0h0l0,0h0l0,0h.06v0h0l0,0h0v0h0l0,0h0l.06,0h0l0,0h0l0,0h0l0,0h0l0,0h0L91,97h0l0,0h0l0,0h0l0,0h0l.12-.11h0l0,0h0l.12-.1h0c.64-.57,1.26-1.14,1.87-1.73h0l0,0h0l0,0h0l.09-.09h0l0,0h0l0,0h0l0,0h0l0,0h0l0,0h0l0,0h0l0,0h0l0,0h0v0h0l0,0h0v0h0l0,0h0l0,0h0l0,0h0l0,0h0l.32-.32L79.22,79Zm5.62-7.66a33.83,33.83,0,0,1-2.94,4.57L98.62,88.85a55.24,55.24,0,0,0,4.83-7.51l-18.61-10Zm23.91-4.68L88.09,62.35l-.15.68a34.56,34.56,0,0,1-1.4,4.61l19.69,7.61c.47-1.23.9-2.47,1.28-3.74h0l0-.13h0l0-.08h0l0-.08h0v0h0l0-.08h0l0-.08h0l0-.08h0v0h0v0h0v0h0l0-.08h0v0h0v0h0v0h0v0h0v0h0l0-.08h0v0h0v0h0v0h0v0h0v0h0l0-.08h0v0h0v0h0v0h0v0h0v0h0l0-.08h0v0h0v0h0v0h0v0h0v0h0l0-.08h0v0h0v0h0v0h0v0h0v0h0v0h0v-.08h0v0h0v0h0v0h0v0h0l0-.07v0h0v0h0v0h0v0h0v0h0l0-.07h0v0h0v0h0v0h0v0h0v0h0l0-.08h0v0h0v0h0v0h0v0h0v0h0l0-.08h0v0h0v0h0v0h0v0h0v0h0v0h0v0h0v0h0v0h0v0h0v0h0v0h0v0h0v0h0v0h0v0h0c0-.22.1-.44.14-.66Zm1-15.56-21,1.71a33.07,33.07,0,0,1,0,5.45l21,1.77a54.51,54.51,0,0,0,.13-7.55h0v0h0v-.13h0v0h0v0h0v0h0v-.06h0v-.06h0v0h0v-.18h0v0h0v0h0v0h0v0h0v0h0v0h0v0h0v0h0v0h0v-.12h0v0h0v-.18Zm-3.41-15.2L86.63,43.55a33,33,0,0,1,1.52,5.24l20.69-4.3c-.14-.67-.28-1.33-.44-2h0v0h0v0h0v0h0l0-.09h0v-.1h0v-.1h0V42h0v0h0v0h0v0h0v-.07h0v0h0l0-.08h0v0h0v0h0v0h0l0-.12h0v0h0v0h0l0-.16h0c-.2-.72-.4-1.43-.63-2.14h0v0h0v0h0l0-.08h0v0h0v0h0v0h0l0,0h0l0-.07h0v0h0v0h0v0h0v0h0v0h0v0h0v0h0v0h0l0-.09h0v0h0v0h0v0h0l0-.13h0v0h0c-.23-.68-.47-1.36-.72-2ZM98.94,22.31,82.11,35.19a33.14,33.14,0,0,1,2.94,4.62l18.66-10-.25-.48h0l0,0h0l-.06-.1h0l0,0h0l0,0h0l0,0h0l0-.07h0l0,0h0l0,0h0v0h0v0h0l0-.07h0v0h0v0h0v0h0v-.07h0v0h0v0h0l0-.07h0v0h0v0h0v0h0l0-.05h0v-.06h0l0,0h0v0h0l0-.07v0h0v0h0v0h0v0h0l0-.08h0v0h0v0h0v0h0v0h0l-.05-.08h0l0,0h0l0,0h0l0,0h0l0-.08h0v0h0v0h0v0h0v0h0l0-.08h0l0,0h0l0,0h0l0,0h0l0,0h0l0-.07v0h0v0h0v0h0v0h0l0,0h0v0h0v-.06h0v0h0l0,0v0h0v0h0v0h0v0h0l0,0v0h0v0h0v0h0v0h0v0h0l0,0h0l0,0h0v0h0v0h0v0h0l0,0h0l0,0h0l0,0h0v0h0v0h0l0-.07h0l0,0h0v0h0v0h0l0,0h0l0-.06h0v0h0v0h0l0,0h0l0,0h0l0-.07h0l0,0h0l0,0h0l0,0h0l0-.06h0l0,0h0l0,0h0v0h0l-.09-.13h0l0,0h0l0,0h0l-.07-.1h0l0,0h0v0h0l0,0h0l0-.06h0l0,0h0l0,0h0l0,0h0v0h0l0-.07h0v0h0l0,0h0l0,0h0l0,0h0l0,0h0l0,0h0v0h0l0,0h0l0,0h0l0-.07h0l0,0h0v0h0v0h0l0,0h0l0,0h0l0,0h0v0h0v0h0v0h0v0l0,0h0l0,0h0v0h0v0h0l0,0h0l-.06-.08h0l0,0h0l0,0h0l0,0h0l-.1-.14h0l-.7-1ZM87.8,11.38,75.25,28.49a33.93,33.93,0,0,1,4.09,3.58L94.48,17.24A53.82,53.82,0,0,0,88,11.56h0l-.16-.12h0l0,0h0l0,0ZM74.13,4.05,66.92,24a33.69,33.69,0,0,1,4.92,2.26L82.2,7.76c-.57-.32-1.14-.63-1.73-.94h0l0,0h-.25l0,0H80.1l0,0h0l-.12,0h0a52.85,52.85,0,0,0-5.76-2.48Z"/><path class="cls-1" d="M90.35,39.78a38.35,38.35,0,1,1-70.15,31,38.35,38.35,0,1,1,70.15-31m15.47-6.84a55.26,55.26,0,1,0-28.21,72.88,55.25,55.25,0,0,0,28.21-72.88Z"/><path class="cls-3" d="M97.57,36.59a46.24,46.24,0,0,1-59,61.81,46.24,46.24,0,0,1-2-85.42,46.23,46.23,0,0,1,61,23.61m8.25-3.65a55.26,55.26,0,1,0-28.21,72.88,55.25,55.25,0,0,0,28.21-72.88Z"/><path class="cls-1" d="M102.73,34.31a51.9,51.9,0,0,1-83,58.76,51.93,51.93,0,0,1-2.22-73.36,51.92,51.92,0,0,1,73.35-2.22,51.41,51.41,0,0,1,11.89,16.82m3.09-1.37a55.26,55.26,0,1,0-28.21,72.88,55.25,55.25,0,0,0,28.21-72.88Z"/><polygon class="cls-1" points="1.86 53.8 10.51 54.04 10.51 47.43 2.58 46.79 1.86 53.8"/><polygon class="cls-1" points="3.21 65.3 10.77 64.58 9.88 58.14 2.64 58.44 3.21 65.3"/><polygon class="cls-1" points="53.61 107.78 53.92 98.78 47.44 98.71 46.6 107.09 53.61 107.78"/><polygon class="cls-1" points="64.99 107.18 64.27 99.16 57.81 99.56 58.13 107.78 64.99 107.18"/><polygon class="cls-1" points="108.56 58.23 100.01 58 98.51 64.28 107.85 65.25 108.56 58.23"/><polygon class="cls-1" points="107.83 46.73 98.8 47.46 98.51 53.93 108.51 53.59 107.83 46.73"/><polygon class="cls-1" points="58.03 2.13 57.79 11.78 64.4 11.78 65.04 2.94 58.03 2.13"/><polygon class="cls-1" points="46.53 2.46 47.25 11.46 53.7 10.4 53.39 1.78 46.53 2.46"/><path class="cls-4" d="M52.72,52.93a33,33,0,0,1-.67,4.65A63,63,0,0,1,50,64.08,16.11,16.11,0,0,0,48.59,70a4,4,0,0,0,3.12,3.43,21.57,21.57,0,0,0,6.48.11s3.56-.19,3.11-4.85c-.44-2.41-1.62-6.79-2.21-10.11-.43-2.43-.28-3.82-.58-5.81"/><path class="cls-5" d="M39.49,55s-3.3-2-.9-10.3,11.14-11,11.14-11a17.13,17.13,0,0,1,17.74,4.59c6,6.38,4.75,13.26,4.75,13.26s0,4.62-3.92,3.86c-5.2-1-9.73-2.07-9.73-2.07s-5.26-.73-9,.34a68.51,68.51,0,0,1-7.95,1.73A4.3,4.3,0,0,1,39.49,55Z"/></g></g></svg>