<svg xmlns="http://www.w3.org/2000/svg" xmlns:xlink="http://www.w3.org/1999/xlink" viewBox="0 0 110.55 110.55"><defs><style>.cls-1{fill:#080707;}.cls-2{fill:url(#New_Gradient_Swatch_copy_2);}.cls-3{fill:url(#New_Gradient_Swatch_copy_2-2);}.cls-4{fill:url(#New_Gradient_Swatch_copy_2-3);}.cls-5{stroke:#080707;stroke-miterlimit:10;stroke-width:3px;fill:url(#New_Gradient_Swatch_copy_2-4);}</style><linearGradient id="New_Gradient_Swatch_copy_2" x1="-571.92" y1="34.82" x2="-461.4" y2="34.82" gradientTransform="matrix(0.97, 0.22, -0.22, 0.97, 566.55, 137.39)" gradientUnits="userSpaceOnUse"><stop offset="0.01" stop-color="#e9e9ea"/><stop offset="0.15" stop-color="#dbdbdc"/><stop offset="0.48" stop-color="#bfc1c3"/><stop offset="0.78" stop-color="#afb1b3"/><stop offset="1" stop-color="#a9abae"/></linearGradient><linearGradient id="New_Gradient_Swatch_copy_2-2" x1="-2515.8" y1="1203.92" x2="-2405.28" y2="1203.92" gradientTransform="translate(2150.94 1819.34) rotate(66.16)" xlink:href="#New_Gradient_Swatch_copy_2"/><linearGradient id="New_Gradient_Swatch_copy_2-3" x1="48.57" y1="63.28" x2="61.34" y2="63.28" gradientTransform="matrix(1, 0, 0, 1, 0, 0)" xlink:href="#New_Gradient_Swatch_copy_2"/><linearGradient id="New_Gradient_Swatch_copy_2-4" x1="37.72" y1="44.16" x2="72.33" y2="44.16" gradientTransform="matrix(1, 0, 0, 1, 0, 0)" xlink:href="#New_Gradient_Swatch_copy_2"/></defs><g id="Layer_2" data-name="Layer 2"><g id="endorfine-token-white_copy_9" data-name="endorfine-token-white copy 9"><circle class="cls-1" cx="55.28" cy="55.28" r="55.26"/><path class="cls-2" d="M67.68,1.57H66.31l-.06,0H66l-.09,0h-.08l-.1,0h-.07l-.1,0h-.08l-.13,0h0c-1.52-.28-3-.5-4.56-.65h-.89L58.76.27,57.39,21.64a34.19,34.19,0,0,1,5.48.81L67.68,1.57ZM52,.1a54.18,54.18,0,0,0-8.07,1.08h-.08l-.13,0h-.51l-.09,0h0l4.74,20.89a34.59,34.59,0,0,1,5.44-.77L52,.1ZM36.59,3.69c-.89.33-1.77.67-2.64,1h0l0,0h0l-.07,0h-.08l0,0h0l0,0h0l0,0h-.12l-.07,0H33.2l0,0H33l-.09,0h-.07l0,0h0l-.13,0h-.06l0,0h0l-.13.06h0l0,0h0c-.84.38-1.67.79-2.5,1.21h0l-.15.08h0l0,0h0l-.11.06h-.11l0,0h0l0,0h-.1l0,0h0l0,0h0l0,0h0l0,0h0l0,0h0l0,0h0l-.69.38L38.82,26.14a33.49,33.49,0,0,1,5-2.29L36.59,3.69Zm-13.89,7-.82.61h0l0,0h0l0,0h0l0,0h0l0,0h0l0,0h-.06l0,0h0l0,0h0l-.05,0h0l0,0h0l0,0h0l0,0h0l-.08.06h0l0,0h0l0,0h0l-.11.08h0l-.06,0h0l-.16.13h0c-.3.23-.59.47-.88.71h0l0,0h0l0,0h0l-.11.09h0l0,0h0l0,0h0l0,0h0l-.11.09h0l0,0h0l0,0h0l-.07.07h0l0,0h0l0,0h0l0,0,0,0h0l0,0h0l0,0h0l-.06,0h0l0,0h0l0,0h0l0,0h0l0,0h0l-.06,0h0l0,0h0l0,0h0c-1,.91-2.06,1.86-3,2.86l15.26,15A34.28,34.28,0,0,1,35.32,28L22.7,10.64Zm-11.27,11a56.76,56.76,0,0,0-4.57,7h0l0,0h0l0,0h0l-.06.12h0l0,0h0l0,0h0l0,0h0l0,.07h0v0h0v0h0l0,0h0l0,0v0h0l18.89,10.1a33,33,0,0,1,3-4.61l-17-13.06ZM3.73,35.33c-.15.39-.29.78-.43,1.17h0l0,.08h0v.13h0v.07h0v0h0v0h0l0,.07h0c-.53,1.51-1,3.06-1.4,4.63h0l0,.08h0l0,.09h0v0h0l0,.09h0l0,.08h0v0h0v0h0v0h0v0h0v0h0l0,.08h0v0h0v0h0v0h0v0h0v0h0v.08h0v0h0v0h0v0h0v0h0v0h0v0h0v0h0V43h0v.12h0v0h0v0h0v0h0v0h0v0h0v0h0v0h0c0,.17-.07.33-.11.49l21,4.39.15-.68A33.2,33.2,0,0,1,23.72,43l-20-7.71ZM21.54,52.48.2,50.66a55.34,55.34,0,0,0,0,9L21.53,58a33.55,33.55,0,0,1,0-5.49Zm.57,9.58-21,4.31h0v.08h0v0h0l0,.08h0v0h0v0h0v0h0v.08h0v0h0v0h0A54.49,54.49,0,0,0,3.28,74h0l.06.15h0v0h0v0h0v0h0v0h0l0,0h0v.1h0v0h0l0,0h0v0h0v0h0v0h0l.12.32,20-7.67a33.61,33.61,0,0,1-1.55-5.28Zm3.24,9.06-18.92,10,.57,1H7l0,0H7l0,0H7l.07.12h0v0h0l0,0h0l0,0h0l0,0h0l.05.08h0v0h0v.06h0l0,.08h0l0,0h0l0,0h0v0h0v0h0l0,.08h0v0h0v0h0v0h0v0l0,0h0l0,0h0v0h0v.06h0v0h0l0,0h0v0h0v0h0v0h0v0h0l0,.09h0l0,0h0l0,0h0l0,0h0l.07.11h0l0,0H8l0,0H8l0,0H8l.09.14h0v0h0a56.15,56.15,0,0,0,3.18,4.65l17.05-13a34.59,34.59,0,0,1-3-4.67Zm5.72,7.81L15.72,93.88A55.94,55.94,0,0,0,20,97.79h0l0,0h0l0,0h0l.07.06h.06v0h.05l0,0h0l0,0h0l0,0h0l0,0h0l0,0h0l.13.11h0c.66.54,1.34,1.06,2,1.57l12.7-17.25a34,34,0,0,1-4.15-3.62Zm7.61,5.85L28.2,103.46q1.31.75,2.67,1.41h0l.12.06h0l0,0h.09l0,0h0l0,0h.08l0,0h.15l.07,0h0l0,0h0l.12,0h0l0,0h0q2.27,1.06,4.65,1.93l7.29-20.15a32.72,32.72,0,0,1-5-2.29Zm14.49,4.28a34.31,34.31,0,0,1-5.49-.81l-4.81,20.88h.29l.13,0h0a56.88,56.88,0,0,0,8.5,1.22l1.38-21.38Zm9.56-.76a34.59,34.59,0,0,1-5.44.77l1.26,21.38a55.45,55.45,0,0,0,8.56-1.18h0l.12,0h.23L62.73,88.3Zm9-3.45a35.61,35.61,0,0,1-5,2.29L74,107.29a55.21,55.21,0,0,0,7.69-3.45h0l0,0h0l0,0h0l.07,0h0l0,0h0l0,0h0l0,0h0l0,0h0l0,0h.1l0,0h.07L71.73,84.85ZM79.42,79a34.36,34.36,0,0,1-4.19,3.61L87.85,99.92c.8-.59,1.58-1.19,2.34-1.81h0l.17-.13h0l0,0h0l0,0h0l.11-.08h0l0,0h0l0,0h0l.08-.06h0l0,0h0l0,0h0l0,0h0l0,0H91v0h0l0,0h.06l0,0h0l.06,0h0l0,0h0l0,0h0l0,0h0l0,0h0l.07-.06h0l0,0h0l0,0h0l0,0h0l.13-.11h0l0,0h0l.12-.1h0c.65-.56,1.28-1.14,1.9-1.74h0l0,0h0l0,0h0l.09-.08h0l0,0h0l0,0h0l0,0h0l.06-.06h0l0,0h0l0,0h0l0,0h0l0,0h0v0h0v0h0v0h0l0,0h0l0,0h0l0,0h0l0,0h0l0,0h0l.32-.33L79.42,79Zm5.69-7.73a33.83,33.83,0,0,1-3,4.61l17,13.06A55.3,55.3,0,0,0,104,81.37l-18.9-10.1Zm24.26-4.69-21-4.39-.15.68a33.2,33.2,0,0,1-1.42,4.64l20,7.71c.48-1.23.91-2.49,1.3-3.77h0l0-.13h0l0-.08h0l0-.08h0v0h0l0-.08h0l0-.08h0l0-.08h0v0h0v0h0v0h0l0-.08h0v0h0v0h0v0h0v0h0v0h0l0-.08h0v0h0v0h0v0h0v0h0v0h0l0-.08h0v0h0v0h0v0h0v0h0v0h0l0-.07h0v0h0v0h0v0h0v0h0v0h0l0-.07h0v0h0v0h0v0h0v0h0v0h0v0h0v-.08h0v0h0v0h0v0h0v0h0l0-.07v0h0v0h0v0h0v0h0v0h0l0-.08h0v0h0v0h0v0h0v0h0v0h0l0-.08h0v0h0v0h0v0h0v0h0v0h0l0-.07v0h0v0h0v0h0v0h0v0h0v0h0v0h0v0h0v0h0v0h0v-.08h0v0h0v0h0v0h0v0h0c0-.22.09-.44.14-.66Zm1-15.7L89,52.58a33.55,33.55,0,0,1,0,5.49l21.34,1.82a53.94,53.94,0,0,0,.12-7.62h0v0h0V52.1h0v0h0v0h0v0h0v-.06h0v-.1h0v-.23h0v-.16h0v0h0v0h0v0h0v0h0v-.12h0v0h0v-.18ZM106.9,35.54l-20,7.67a34.47,34.47,0,0,1,1.54,5.29l21-4.32c-.14-.67-.29-1.33-.45-2h0v0h0v0h0v0h0l0-.09h0v0h0v-.1h0v-.1h0v0h0v-.07h0v0h0v0h0v0h0v0h0v0h0l0-.08h0v0h0v0h0v0h0l0-.12h0v0h0v0h0l0-.16h0c-.2-.72-.41-1.44-.64-2.16h0v0h0v0h0l0-.08h0v0h0v0h0v0h0v0h0l0-.08h0v0h0v0h0v-.07h0v0h0V38h0v0h0l0-.09h0v0h0v0h0v0h0l0-.13h0v0h0c-.24-.68-.48-1.37-.74-2ZM99.36,21.79l-17,13a34.59,34.59,0,0,1,3,4.67l18.92-10L104,28.9h0l0,0h0l-.06-.11h0l0,0h0l0,0h0l0,0h0l0-.08h0l0,0h0l0,0h0l0,0h0l0,0h0l0-.07h0v-.06h0v0h0v0l0,0v0h0v0h0v0h0v0l0-.07h0v0h0v-.06h0v0h0l0-.05h0v0h0l0,0h0l0,0h0v0h0l0-.07v0h0v0h0v0h0v0l0-.07h0l0,0h0l0,0h0l0,0h0v0h0l0-.09h0v0h0v0h0v0h0l0-.07h0v0h0v0h0v0h0l0,0h0l-.05-.08h0l0,0h0l0,0h0l0,0h0l0,0h0l0-.08h0v0h0v0h0v0h0v0h0l0,0v0h0v0h0v0h0v0l0,0h0v0h0v0h0v0h0v0h0l0,0h0v0h0v0h0v0h0v0h0l0,0h0l0,0h0v0h0v-.06h0l0,0h0l0,0h0v0h0v0h0v0l0-.06h0v0h0l0,0h0l0,0h0l0,0h0l-.05-.07h0l0,0h0l0,0h0v0h0l0,0h0l0-.07h0l0,0h0l0,0h0l0,0h0l-.05-.07h0l0,0h0l0,0h0l0,0h0l-.09-.13h0l0,0h0l0,0h0l-.06-.1h0l0,0h0l0,0h0l0,0h0l0-.07h0l0,0h0l0,0h0l0,0h0l0,0h0l0-.07h0l0,0h0l0,0h0l0,0h0l0,0h0l0,0h0l0,0h0v0h0l0,0h0l0,0h0l0-.07h0l0,0h0l0,0h0l0,0h0v0h0l0,0h0l0,0h0v0h0v0h0v0h0v0h0l0,0h0l0,0h0v0h0v0h0l0,0h0l0-.08h0l0,0h0l0,0h0l0,0h0l-.1-.14h0l-.72-1ZM88,10.75,75.33,28a34,34,0,0,1,4.15,3.62L94.83,16.67a56.07,56.07,0,0,0-6.55-5.74h0l-.17-.12h0l0,0h0l0,0ZM74.16,3.34,66.87,23.48a32.72,32.72,0,0,1,5,2.29L82.36,7.09c-.58-.33-1.17-.64-1.76-1h0l0,0h0l0,0h0l0,0h0l0,0h-.28L80,5.86h0l0,0h0a54.42,54.42,0,0,0-5.85-2.5Z"/><path class="cls-1" d="M90.35,39.78a38.35,38.35,0,1,1-70.15,31,38.35,38.35,0,1,1,70.15-31m15.47-6.84a55.26,55.26,0,1,0-28.21,72.88,55.25,55.25,0,0,0,28.21-72.88Z"/><path class="cls-3" d="M97.57,36.59a46.24,46.24,0,0,1-59,61.81,46.24,46.24,0,0,1-2-85.42,46.23,46.23,0,0,1,61,23.61m8.25-3.65a55.26,55.26,0,1,0-28.21,72.88,55.25,55.25,0,0,0,28.21-72.88Z"/><path class="cls-1" d="M102.73,34.31a51.9,51.9,0,0,1-83,58.76,51.93,51.93,0,0,1-2.22-73.36,51.92,51.92,0,0,1,73.35-2.22,51.41,51.41,0,0,1,11.89,16.82m3.09-1.37a55.26,55.26,0,1,0-28.21,72.88,55.25,55.25,0,0,0,28.21-72.88Z"/><g id="cutout_copy_11" data-name="cutout copy 11"><polygon class="cls-1" points="2.35 53.8 10 54.04 10 47.43 2.98 46.79 2.35 53.8"/><polygon class="cls-1" points="3.21 65.3 10.77 64.58 9.88 58.14 2.64 58.44 3.21 65.3"/><polygon class="cls-1" points="53.61 107.66 53.92 99.26 47.44 99.2 46.6 107.02 53.61 107.66"/><polygon class="cls-1" points="64.99 106.72 64.27 99.16 57.81 99.53 58.13 107.28 64.99 106.72"/><polygon class="cls-1" points="108.56 58.23 100.91 58 99.57 64.28 107.92 65.25 108.56 58.23"/><polygon class="cls-1" points="107.68 46.73 100.13 47.46 99.88 53.93 108.25 53.59 107.68 46.73"/><polygon class="cls-1" points="58.03 2.62 57.79 10.26 64.4 10.26 65.04 3.25 58.03 2.62"/><polygon class="cls-1" points="46.53 3.9 47.25 11.46 53.7 10.57 53.39 3.34 46.53 3.9"/></g><path class="cls-4" d="M52.72,52.93a33,33,0,0,1-.67,4.65A63,63,0,0,1,50,64.08,16.11,16.11,0,0,0,48.59,70a4,4,0,0,0,3.12,3.43,21.57,21.57,0,0,0,6.48.11s3.56-.19,3.11-4.85c-.44-2.41-1.62-6.79-2.21-10.11-.43-2.43-.28-3.82-.58-5.81"/><path class="cls-5" d="M39.49,55s-3.3-2-.9-10.3,11.14-11,11.14-11a17.13,17.13,0,0,1,17.74,4.59c6,6.38,4.75,13.26,4.75,13.26s0,4.62-3.92,3.86c-5.2-1-9.73-2.07-9.73-2.07s-5.26-.73-9,.34a68.51,68.51,0,0,1-7.95,1.73A4.3,4.3,0,0,1,39.49,55Z"/></g></g></svg>